<svg width="20" height="20" viewBox="0 0 20 20" fill="none" xmlns="http://www.w3.org/2000/svg">
<path fill-rule="evenodd" clip-rule="evenodd" d="M10 20C15.5229 20 20 15.5229 20 10C20 4.47714 15.5229 0 10 0C4.47714 0 0 4.47714 0 10C0 15.5229 4.47714 20 10 20ZM8.89914 3.09488L8.6564 3.0979L8.68552 5.44516L8.92825 5.44214L8.89914 3.09488ZM5.88174 3.82587L6.10043 3.72046L7.11966 5.83511L6.90097 5.94052L5.88174 3.82587ZM4.00677 5.23154L3.84177 5.40961L5.56351 7.00525L5.72852 6.82721L4.00677 5.23154ZM12.7827 13.7672C13.3138 13.1019 13.8408 12.1128 13.8408 10.8023C13.8408 9.4762 13.407 8.27048 12.6186 7.39883C11.8327 6.52991 10.6832 5.98022 9.22162 5.98022C7.89059 5.98022 7.07257 6.34711 6.59222 6.69766C6.35074 6.87393 6.19107 7.04858 6.09308 7.1763C6.06863 7.20816 5.92441 7.3746 5.90735 7.39993L5.95459 7.45715L11.0938 12.8679V9.12817H9.70993V8.57413H13.1697V9.12817H11.855V14.6037L11.8904 14.6466C11.9367 14.6114 11.9915 14.5681 12.0528 14.5167C12.2513 14.3501 12.517 14.0999 12.7827 13.7672ZM6.59607 9.12817L11.855 14.9455C11.855 14.9455 14.0598 13.5482 14.0598 10.8023C14.0598 8.0564 12.3201 5.76132 9.22162 5.76132C6.59222 5.76132 5.76572 7.2583 5.76572 7.2583V14.7378H6.66528L6.59607 9.12817ZM12.0679 3.43298L12.2931 3.52374L11.4156 5.70102L11.1905 5.61029L12.0679 3.43298ZM15.2443 5.62408L15.088 5.43832L13.2917 6.94952L13.448 7.13528L15.2443 5.62408ZM16.5897 8.22128L16.6503 8.45636L14.3771 9.04214L14.3165 8.80707L16.5897 8.22128ZM16.8612 11.5368L16.8873 11.2955L14.5535 11.0427L14.5274 11.284L16.8612 11.5368ZM15.9721 14.5034L15.8351 14.7037L13.8975 13.3785L14.0345 13.1781L15.9721 14.5034ZM13.732 17L13.9095 16.8343L12.3076 15.1183L12.1301 15.284L13.732 17Z" fill="white"/>
</svg>
