<svg width="64" height="64" viewBox="0 0 64 64" fill="none" xmlns="http://www.w3.org/2000/svg">
<rect width="64" height="64" rx="10" fill="url(#paint0_linear_14:2)"/>
<path d="M18.0368 48.3844H14.52V19.1434L35.3503 41.0742V26.4536H29.9398V24.2876H43.4661V26.4536H38.3261V49.1967L17.7663 26.4536L18.0368 48.3844Z" fill="black"/>
<path fill-rule="evenodd" clip-rule="evenodd" d="M41.9529 44.5897C44.0292 41.9891 46.0894 38.122 46.0894 32.9985C46.0894 27.8142 44.3936 23.1004 41.3114 19.6927C38.2388 16.2956 33.7448 14.1466 28.0308 14.1466C22.8271 14.1466 19.6291 15.581 17.7512 16.9515C16.807 17.6405 16.1829 18.3234 15.7998 18.8227C15.7042 18.9473 15.1404 19.5979 15.0736 19.6969L38.4647 48.028C38.6455 47.8903 38.8597 47.7209 39.0994 47.5199C39.8756 46.8689 40.9143 45.8906 41.9529 44.5897ZM38.3254 49.1966L14.52 19.1433C14.52 19.1433 17.7512 13.2908 28.0308 13.2908C40.1444 13.2908 46.9459 22.2634 46.9459 32.9985C46.9459 43.7337 38.3254 49.1966 38.3254 49.1966ZM15.296 19.5924C15.2949 19.5946 15.2943 19.5959 15.2943 19.5959L15.2949 19.5945L15.2956 19.5931L15.296 19.5924Z" fill="black"/>
<path d="M6.99818 11.9157L7.6433 11.2197L14.3744 17.4579L13.7293 18.154L6.99818 11.9157Z" fill="black"/>
<path d="M14.9736 5.72409L15.8285 5.31203L19.8131 13.5793L18.9582 13.9913L14.9736 5.72409Z" fill="black"/>
<path d="M25.8212 2.87805L26.7702 2.86628L26.884 12.043L25.935 12.0547L25.8212 2.87805Z" fill="black"/>
<path d="M39.1584 4.1882L40.0387 4.54295L36.6083 13.0551L35.7281 12.7004L39.1584 4.1882Z" fill="black"/>
<path d="M50.9657 12.028L51.5767 12.7543L44.5539 18.6623L43.9429 17.9361L50.9657 12.028Z" fill="black"/>
<path d="M56.8364 22.9081L57.0732 23.8271L48.1862 26.1172L47.9493 25.1982L56.8364 22.9081Z" fill="black"/>
<path d="M58 34.9267L57.8978 35.8702L48.7738 34.8818L48.876 33.9383L58 34.9267Z" fill="black"/>
<path d="M54.422 47.4681L53.8862 48.2514L46.3112 43.0703L46.847 42.287L54.422 47.4681Z" fill="black"/>
<path d="M46.358 56.581L45.6643 57.2286L39.4017 50.52L40.0955 49.8724L46.358 56.581Z" fill="black"/>
<defs>
<linearGradient id="paint0_linear_14:2" x1="3" y1="2.5" x2="56.5" y2="59.5" gradientUnits="userSpaceOnUse">
<stop offset="0.359375" stop-color="#FFE600"/>
<stop offset="1" stop-color="#FF7A00"/>
</linearGradient>
</defs>
</svg>
