<svg width="20" height="20" viewBox="0 0 20 20" fill="none" xmlns="http://www.w3.org/2000/svg">
<path fill-rule="evenodd" clip-rule="evenodd" d="M0 10C0 4.4775 4.4775 0 10 0C15.5225 0 20 4.4775 20 10C20 15.5225 15.5225 20 10 20C4.4775 20 0 15.5225 0 10ZM10 4.5C8.506 4.5 8.319 4.506 7.7325 4.533H7.732C7.147 4.56 6.747 4.653 6.397 4.7885C6.03024 4.92672 5.69802 5.14325 5.4235 5.423C5.14356 5.69766 4.92686 6.03004 4.7885 6.397C4.653 6.747 4.5595 7.147 4.533 7.733C4.5065 8.319 4.5 8.506 4.5 10C4.5 11.4935 4.506 11.6805 4.533 12.268C4.56 12.853 4.653 13.253 4.7885 13.603C4.92666 13.9699 5.14319 14.3023 5.423 14.577C5.69791 14.8566 6.03046 15.073 6.3975 15.211C6.7475 15.347 7.1475 15.4405 7.7325 15.467C8.319 15.4935 8.506 15.5 10 15.5C11.494 15.5 11.681 15.494 12.268 15.467C12.853 15.44 13.253 15.347 13.603 15.211C13.9695 15.073 14.302 14.857 14.577 14.577C14.8566 14.3021 15.073 13.9695 15.211 13.6025C15.347 13.2525 15.4405 12.8525 15.467 12.2675C15.4935 11.681 15.5 11.494 15.5 10C15.5 8.5065 15.494 8.3195 15.467 7.732C15.44 7.147 15.347 6.747 15.211 6.397C15.073 6.03 14.857 5.698 14.577 5.4235C14.302 5.1435 13.9695 4.927 13.603 4.7885C13.253 4.653 12.853 4.5595 12.267 4.533C11.681 4.5065 11.494 4.5 10 4.5ZM10 5.491C11.4685 5.491 11.6425 5.4965 12.2225 5.523C12.759 5.5475 13.05 5.637 13.244 5.7125C13.4829 5.80061 13.699 5.94104 13.8765 6.1235C14.069 6.316 14.1875 6.4995 14.2875 6.756C14.363 6.95 14.4525 7.241 14.477 7.7775C14.5035 8.3575 14.509 8.5315 14.509 10C14.509 11.4685 14.5035 11.6425 14.477 12.2225C14.4525 12.759 14.363 13.05 14.2875 13.244C14.1995 13.4825 14.059 13.699 13.8765 13.8765C13.684 14.069 13.5005 14.1875 13.244 14.2875C13.05 14.363 12.759 14.4525 12.2225 14.477C11.6425 14.5035 11.469 14.509 10 14.509C8.531 14.509 8.3575 14.5035 7.7775 14.477C7.241 14.4525 6.95 14.363 6.756 14.2875C6.5175 14.1995 6.301 14.059 6.1235 13.8765C5.941 13.699 5.8005 13.4825 5.7125 13.244C5.637 13.05 5.5475 12.759 5.523 12.2225C5.4965 11.6425 5.491 11.4685 5.491 10C5.491 8.5315 5.4965 8.3575 5.523 7.7775C5.5475 7.241 5.637 6.95 5.7125 6.756C5.80059 6.51714 5.94102 6.30103 6.1235 6.1235C6.316 5.931 6.4995 5.8125 6.756 5.7125C6.95 5.637 7.241 5.5475 7.7775 5.523C8.3575 5.4965 8.5315 5.491 10 5.491ZM10.5335 11.7579C10.1267 11.8809 9.68983 11.8588 9.2975 11.6955C9.04691 11.5916 8.82248 11.4334 8.64036 11.2324C8.45824 11.0313 8.32296 10.7924 8.24427 10.5328C8.16558 10.2731 8.14542 9.99932 8.18526 9.73098C8.22509 9.46264 8.32393 9.20648 8.47465 8.98093C8.62537 8.75537 8.82423 8.56604 9.0569 8.42657C9.28958 8.28709 9.55028 8.20094 9.82025 8.17431C10.0902 8.14768 10.3627 8.18124 10.6182 8.27257C10.8736 8.36391 11.1056 8.51074 11.2975 8.7025C11.5985 9.00249 11.786 9.39767 11.828 9.82055C11.87 10.2434 11.7639 10.6678 11.5278 11.0211C11.2917 11.3745 10.9402 11.6349 10.5335 11.7579ZM8.91815 7.38818C8.57516 7.53025 8.26351 7.73849 8.001 8.001C7.47083 8.53117 7.17299 9.25023 7.17299 10C7.17299 10.7498 7.47083 11.4688 8.001 11.999C8.53117 12.5292 9.25023 12.827 10 12.827C10.7498 12.827 11.4688 12.5292 11.999 11.999C12.2615 11.7365 12.4697 11.4248 12.6118 11.0819C12.7539 10.7389 12.827 10.3712 12.827 10C12.827 9.62875 12.7539 9.26114 12.6118 8.91815C12.4697 8.57516 12.2615 8.26351 11.999 8.001C11.7365 7.73849 11.4248 7.53025 11.0819 7.38818C10.7389 7.24611 10.3712 7.17299 10 7.17299C9.62875 7.17299 9.26114 7.24611 8.91815 7.38818ZM13.6072 7.37699C13.5711 7.45884 13.5191 7.53263 13.454 7.594C13.3275 7.71334 13.1594 7.77868 12.9855 7.77615C12.8116 7.77361 12.6456 7.7034 12.5226 7.58042C12.3996 7.45744 12.3294 7.29137 12.3269 7.11747C12.3243 6.94356 12.3897 6.77551 12.509 6.649C12.5704 6.58395 12.6442 6.53187 12.726 6.49585C12.8079 6.45983 12.8961 6.4406 12.9855 6.43929C13.075 6.43799 13.1637 6.45464 13.2466 6.48826C13.3295 6.52188 13.4047 6.57178 13.468 6.63502C13.5312 6.69826 13.5811 6.77354 13.6147 6.85641C13.6484 6.93927 13.665 7.02805 13.6637 7.11747C13.6624 7.20688 13.6432 7.29513 13.6072 7.37699Z" fill="white"/>
</svg>
