<svg width="78" height="82" viewBox="0 0 78 82" fill="none" xmlns="http://www.w3.org/2000/svg">
<path d="M16.9895 68.6749H11.6908V24.6188L43.075 57.6609V35.6328H34.9233V32.3694H55.3026V35.6328H47.5584V69.8987L16.5819 35.6328L16.9895 68.6749Z" fill="#2C2C2C"/>
<path fill-rule="evenodd" clip-rule="evenodd" d="M53.0227 62.9576C56.151 59.0393 59.255 53.2131 59.255 45.4937C59.255 37.6827 56.7 30.5806 52.0563 25.4465C47.4269 20.3282 40.656 17.0904 32.0469 17.0904C24.2069 17.0904 19.3886 19.2515 16.5592 21.3164C15.1367 22.3546 14.1963 23.3834 13.6191 24.1357C13.4751 24.3234 12.6256 25.3037 12.5249 25.4528L47.7672 68.138C48.0397 67.9305 48.3624 67.6753 48.7235 67.3724C49.893 66.3915 51.4579 64.9176 53.0227 62.9576ZM47.5573 69.8987L11.6908 24.6187C11.6908 24.6187 16.5592 15.8011 32.0469 15.8011C50.2979 15.8011 60.5455 29.3196 60.5455 45.4937C60.5455 61.6679 47.5573 69.8987 47.5573 69.8987ZM12.8601 25.2953C12.8584 25.2987 12.8575 25.3006 12.8575 25.3006L12.8584 25.2986L12.8595 25.2964L12.8601 25.2953Z" fill="#2C2C2C"/>
<path d="M0.358139 13.7293L1.3301 12.6805L11.4716 22.0794L10.4996 23.1282L0.358139 13.7293Z" fill="#2C2C2C"/>
<path d="M12.3742 4.4006L13.6623 3.77977L19.6658 16.2356L18.3777 16.8564L12.3742 4.4006Z" fill="#2C2C2C"/>
<path d="M28.7179 0.11261L30.1476 0.0948797L30.3191 13.921L28.8893 13.9387L28.7179 0.11261Z" fill="#2C2C2C"/>
<path d="M48.8125 2.08655L50.1387 2.62102L44.9703 15.4459L43.644 14.9114L48.8125 2.08655Z" fill="#2C2C2C"/>
<path d="M66.6019 13.8985L67.5224 14.9927L56.9415 23.894L56.021 22.7999L66.6019 13.8985Z" fill="#2C2C2C"/>
<path d="M75.447 30.2909L75.8038 31.6756L62.4141 35.126L62.0573 33.7413L75.447 30.2909Z" fill="#2C2C2C"/>
<path d="M77.2001 48.3987L77.0462 49.8203L63.2994 48.3312L63.4534 46.9096L77.2001 48.3987Z" fill="#2C2C2C"/>
<path d="M71.8093 67.2943L71.0021 68.4745L59.5891 60.6684L60.3964 59.4882L71.8093 67.2943Z" fill="#2C2C2C"/>
<path d="M59.6597 81.0243L58.6144 82L49.179 71.8924L50.2243 70.9167L59.6597 81.0243Z" fill="#2C2C2C"/>
</svg>
