<svg width="23" height="24" viewBox="0 0 23 24" fill="none" xmlns="http://www.w3.org/2000/svg">
<path fill-rule="evenodd" clip-rule="evenodd" d="M21.2184 12C21.2184 17.5228 16.7413 22 11.2184 22C5.69559 22 1.21844 17.5228 1.21844 12C1.21844 6.47715 5.69559 2 11.2184 2C16.7413 2 21.2184 6.47715 21.2184 12ZM9.03475 7.38382L9.42258 6.04185C4.08277 7.38385 2.44204 12.7816 6.43944 16.7181C6.43944 16.7181 6.64829 16.0322 6.85708 15.3165C4.29614 12.722 5.39534 8.90475 9.03475 7.38382ZM14.4342 8.24867L15.1502 8.03991L15.2993 7.38381C19.5055 10.8432 17.8418 16.887 12.3759 18.0303L12.8233 16.7181C16.9102 15.3165 17.5963 10.5748 14.4342 8.24867ZM14.9309 7.95205L12.6088 8.45722L13.3233 5.84232L12.6088 5.84232C12.2568 5.87326 12.1077 5.97016 11.9837 6.37719L10.9715 10.0024L8.61958 10.0024L9.98903 5.36689C10.1951 4.55731 10.4951 4.14859 11.3585 4.00001L16.0027 4.00001L14.9309 7.95205ZM8.53026 10.3292L8.05394 12.0526L11.1799 12.0526C11.3675 12.0537 11.397 12.1264 11.2989 12.4092L10.2867 16.0047C10.2263 16.3342 10.1468 16.4212 9.9295 16.391L9.215 16.391C8.97532 16.3808 8.96809 16.2679 9.09591 15.975L9.57224 14.3704L7.39898 14.3704L6.68448 16.8961C6.53563 17.3418 6.74405 18.2927 7.48829 18.2927L10.5845 18.2927C11.7043 18.2957 12.0579 17.8394 12.4005 16.5396C12.4005 16.5396 13.5615 12.6172 13.7104 12.0526C13.8592 11.488 13.7103 10.3292 12.5791 10.3292L8.53026 10.3292Z" fill="white"/>
</svg>
