<svg width="20" height="20" viewBox="0 0 20 20" fill="none" xmlns="http://www.w3.org/2000/svg">
<path fill-rule="evenodd" clip-rule="evenodd" d="M20 10C20 15.5225 15.5225 20 10 20C4.4775 20 0 15.5225 0 10C0 4.4775 4.4775 0 10 0C15.5225 0 20 4.4775 20 10ZM10 4.16667C6.77833 4.16667 4.16667 6.77833 4.16667 10C4.16667 13.2217 6.77833 15.8333 10 15.8333C13.2217 15.8333 15.8333 13.2217 15.8333 10C15.8333 6.77833 13.2217 4.16667 10 4.16667ZM12.675 12.58C12.5708 12.7525 12.3467 12.8058 12.175 12.7017C10.8058 11.8642 9.08167 11.675 7.05083 12.1392C6.855 12.1833 6.66 12.0608 6.61583 11.8658C6.57083 11.67 6.6925 11.475 6.88917 11.43C9.11083 10.9225 11.0175 11.1408 12.555 12.08C12.7258 12.185 12.78 12.4092 12.675 12.58ZM13.3892 10.9917C13.2575 11.2058 12.9775 11.2733 12.7633 11.1417C11.1958 10.1783 8.805 9.89917 6.95083 10.4617C6.71 10.535 6.45583 10.3992 6.38333 10.1592C6.31083 9.91833 6.44667 9.665 6.68667 9.59167C8.805 8.94917 11.4392 9.26 13.2392 10.3667C13.4533 10.4983 13.5208 10.7783 13.3892 10.9917ZM13.4508 9.33833C11.57 8.22167 8.46833 8.11833 6.67333 8.66333C6.38583 8.75083 6.08083 8.58833 5.99333 8.3C5.90583 8.01167 6.06833 7.70667 6.35667 7.61917C8.4175 6.99417 11.8425 7.115 14.0075 8.4C14.2667 8.55333 14.3517 8.88833 14.1983 9.1475C14.0442 9.40667 13.7092 9.49167 13.4508 9.33833Z" fill="white"/>
</svg>
