<svg width="20" height="20" viewBox="0 0 20 20" fill="none" xmlns="http://www.w3.org/2000/svg">
<path fill-rule="evenodd" clip-rule="evenodd" d="M10 20C15.5228 20 20 15.5228 20 10C20 4.47715 15.5228 0 10 0C4.47715 0 0 4.47715 0 10C0 15.5228 4.47715 20 10 20ZM14.2969 5.70312C13.8281 5.23438 13.2664 5 12.6116 5C11.9568 5 11.3988 5.23438 10.9375 5.70312C10.4762 6.17188 10.2455 6.73363 10.2455 7.38839C10.2455 7.71577 10.4427 8.21801 10.8371 8.89509C11.2314 9.57217 11.6146 10.2604 11.9866 10.9598C12.3586 11.6592 12.5298 12.2173 12.5 12.6339C12.5 12.7083 12.5409 12.7455 12.6228 12.7455C12.7046 12.7455 12.7455 12.7083 12.7455 12.6339C12.7009 12.2173 12.8683 11.6592 13.2478 10.9598C13.6272 10.2604 14.0141 9.57217 14.4085 8.89509C14.8028 8.21801 15 7.71577 15 7.38839C15 6.73363 14.7656 6.17188 14.2969 5.70312ZM11.9531 6.70759C12.1391 6.52158 12.3624 6.42857 12.6228 6.42857C12.8832 6.42857 13.1064 6.52158 13.2924 6.70759C13.4784 6.8936 13.5714 7.12053 13.5714 7.38839C13.5714 7.65625 13.4784 7.88318 13.2924 8.0692C13.1064 8.25521 12.8832 8.34821 12.6228 8.34821C12.3624 8.34821 12.1391 8.25521 11.9531 8.0692C11.7671 7.88318 11.6741 7.65625 11.6741 7.38839C11.6741 7.12053 11.7671 6.8936 11.9531 6.70759ZM10.0893 5.95982H5.95982C5.69196 5.95982 5.46503 6.05283 5.27902 6.23884C5.09301 6.42485 5 6.65178 5 6.91964V14.5312L5.02232 14.6875L10.3571 9.35268C9.88095 8.50446 9.64286 7.8869 9.64286 7.5C9.64286 6.9494 9.79167 6.43601 10.0893 5.95982ZM10.7812 10.9598L11.9196 12.0982C11.7262 11.6964 11.4509 11.2054 11.0938 10.625L10.7812 10.9598ZM6.25 15.4911H13.2812L9.75446 11.9643L6.25 15.4911ZM14.5312 14.5312V9.95536L14.2634 10.4018C14.1295 10.625 14.0365 10.785 13.9844 10.8817C13.9323 10.9784 13.8504 11.1235 13.7388 11.317C13.6272 11.5104 13.5379 11.6704 13.471 11.7969C13.404 11.9234 13.3333 12.0647 13.2589 12.221C13.1845 12.3772 13.1176 12.526 13.058 12.6674C12.9985 12.8088 12.9464 12.9464 12.9018 13.0804L14.5089 14.6875L14.5312 14.5312ZM6.62947 10.3348C6.77827 10.439 6.97917 10.4911 7.23214 10.4911C7.4256 10.4911 7.58928 10.439 7.72322 10.3348C7.85714 10.2307 7.92411 10.1116 7.92411 9.97768C7.92411 9.87351 7.8869 9.78423 7.8125 9.70982C7.73809 9.63542 7.60417 9.52381 7.41072 9.375H7.29911C7.12053 9.375 6.95684 9.39732 6.80803 9.44196C6.54018 9.54613 6.40625 9.70238 6.40625 9.91071C6.40625 10.0893 6.48066 10.2307 6.62947 10.3348ZM6.79688 7.42188C6.71503 7.50372 6.67411 7.61905 6.67411 7.76786C6.67411 7.96131 6.72991 8.1436 6.84152 8.31473C6.95312 8.48586 7.09077 8.57143 7.25447 8.57143C7.35863 8.57143 7.45908 8.53795 7.5558 8.47098C7.65253 8.40402 7.70089 8.28869 7.70089 8.125C7.70089 7.93155 7.64509 7.74553 7.53348 7.56696C7.42188 7.38839 7.26934 7.29911 7.07589 7.29911C6.97173 7.29911 6.87872 7.34003 6.79688 7.42188ZM7.67857 9.01786L7.83482 9.15178C8.0878 9.36012 8.21428 9.58333 8.21428 9.82143C8.21428 10.0446 8.1064 10.2455 7.89062 10.4241C7.67485 10.6027 7.38095 10.692 7.00893 10.692C6.68155 10.692 6.43229 10.6287 6.26116 10.5022C6.09003 10.3757 6.00447 10.2158 6.00447 10.0223C6.00447 9.78423 6.12351 9.59821 6.36161 9.46428C6.5997 9.31548 6.89732 9.23363 7.25447 9.21875C7.16518 9.11458 7.12053 9.01042 7.12053 8.90625L7.16518 8.72768H7.05357C6.81548 8.72768 6.62947 8.65327 6.49553 8.50446C6.36161 8.35565 6.29464 8.18452 6.29464 7.99107C6.29464 7.75298 6.38021 7.54836 6.55134 7.37723C6.72247 7.2061 6.96428 7.12053 7.27678 7.12053H8.23661L8.03572 7.32143H7.76786C7.97619 7.5 8.08036 7.69345 8.08036 7.90178C8.08036 8.13988 7.95387 8.35565 7.70089 8.54911C7.59673 8.62351 7.54464 8.7128 7.54464 8.81696C7.54464 8.87649 7.58928 8.94345 7.67857 9.01786Z" fill="white"/>
</svg>
