<svg width="20" height="20" viewBox="0 0 20 20" fill="none" xmlns="http://www.w3.org/2000/svg">
<path d="M10.0258 5.14333C7.375 5.14333 5.22 7.29833 5.21917 9.94833C5.21833 11.03 5.53583 11.84 6.06833 12.6875L5.58333 14.4608L7.40167 13.9833C8.21667 14.4667 8.99417 14.7567 10.0225 14.7575C12.6708 14.7575 14.8283 12.6017 14.8292 9.9525C14.83 7.29667 12.6833 5.14417 10.0258 5.14333ZM12.8525 12.0133C12.7325 12.3508 12.155 12.6583 11.8775 12.7C11.6283 12.7375 11.3133 12.7525 10.9675 12.6425C10.7575 12.5758 10.4883 12.4867 10.1442 12.3383C8.695 11.7125 7.74917 10.2533 7.67667 10.1575C7.60417 10.0608 7.08667 9.37417 7.08667 8.66333C7.08667 7.9525 7.46 7.6025 7.5925 7.45833C7.725 7.31417 7.88083 7.2775 7.9775 7.2775L8.25417 7.2825C8.3425 7.28667 8.46167 7.24917 8.57917 7.53083C8.69917 7.82 8.98833 8.53083 9.02417 8.60333C9.06 8.67583 9.08417 8.76 9.03583 8.85667C8.9875 8.95333 8.96333 9.01333 8.89167 9.0975L8.675 9.35083C8.6025 9.4225 8.5275 9.50083 8.61167 9.64583C8.69583 9.79083 8.98583 10.2633 9.415 10.6467C9.96667 11.1392 10.4325 11.2917 10.5767 11.3633C10.7208 11.435 10.805 11.4233 10.89 11.3275C10.9742 11.2308 11.2508 10.9058 11.3475 10.7608C11.4442 10.6167 11.54 10.64 11.6725 10.6883C11.805 10.7367 12.515 11.0858 12.6592 11.1583C12.8033 11.2308 12.9 11.2667 12.9358 11.3267C12.9733 11.3867 12.9733 11.6758 12.8525 12.0133ZM10 0C4.4775 0 0 4.4775 0 10C0 15.5225 4.4775 20 10 20C15.5225 20 20 15.5225 20 10C20 4.4775 15.5225 0 10 0ZM10.0242 15.7333C9.05667 15.7333 8.10333 15.49 7.25917 15.03L4.195 15.8333L5.015 12.8375C4.50917 11.9608 4.2425 10.9658 4.24333 9.9475C4.24417 6.76 6.8375 4.16667 10.0242 4.16667C11.5708 4.1675 13.0225 4.76917 14.1133 5.86167C15.205 6.95417 15.8058 8.40667 15.805 9.95167C15.8042 13.1392 13.2108 15.7333 10.0242 15.7333Z" fill="white"/>
</svg>
